<?xml version="1.0" encoding="UTF-8"?>
<svg width="12px" height="12px" viewBox="0 0 12 12" version="1.1" xmlns="http://www.w3.org/2000/svg" xmlns:xlink="http://www.w3.org/1999/xlink">
    <title>time@3x</title>
    <g id="5.-Pages" stroke="none" stroke-width="1" fill="none" fill-rule="evenodd">
        <g id="5.2.8-Invoice" transform="translate(-172.000000, -648.000000)" fill="#FFFFFF" fill-rule="nonzero">
            <g id="Content" transform="translate(32.000000, 325.000000)">
                <g id="Add-Delivery-time" transform="translate(0.000000, 319.000000)">
                    <g id="clock" transform="translate(140.000000, 4.000000)">
                        <g id="time" transform="translate(-0.000000, -0.000000)">
                            <path d="M5.87425893,-1.95399252e-14 C2.62999531,-1.95399252e-14 -2.54907206e-13,2.57257183 -2.54907206e-13,5.746 C-2.54907206e-13,8.91942817 2.62999531,11.492 5.87425893,11.492 C9.11852255,11.492 11.7485179,8.91942817 11.7485179,5.746 C11.7451369,2.57394268 9.1171211,0.00330709981 5.87425893,-1.95399252e-14 Z M5.87425893,10.815 C3.01167338,10.815 0.691089286,8.54508368 0.691089286,5.745 C0.691089286,2.94491632 3.01167338,0.675 5.87425893,0.675 C8.73684448,0.675 11.0574286,2.94491632 11.0574286,5.745 C11.0546108,8.54394122 8.73567652,10.8122438 5.87425893,10.815 L5.87425893,10.815 Z M9.55972768,6.084 L9.55972768,6.76 L5.41319196,6.76 L5.41319196,3.38 L6.10428125,3.38 L6.10428125,6.08 L9.55972768,6.084 Z"></path>
                        </g>
                    </g>
                </g>
            </g>
        </g>
    </g>
</svg>